<svg width="438" height="71" viewBox="0 0 438 71" fill="none" xmlns="http://www.w3.org/2000/svg">
<g clip-path="url(#clip0_358_290)">
<path d="M206 12H212" stroke="#D2CDC6" stroke-width="2" stroke-linecap="round" stroke-linejoin="round"/>
<path d="M206 16H212" stroke="#D2CDC6" stroke-width="2" stroke-linecap="round" stroke-linejoin="round"/>
<path d="M206 20H212" stroke="#D2CDC6" stroke-width="2" stroke-linecap="round" stroke-linejoin="round"/>
<path d="M206 24H212" stroke="#D2CDC6" stroke-width="2" stroke-linecap="round" stroke-linejoin="round"/>
<path d="M216 16H222" stroke="#D2CDC6" stroke-width="2" stroke-linecap="round" stroke-linejoin="round"/>
<path d="M216 20H222" stroke="#D2CDC6" stroke-width="2" stroke-linecap="round" stroke-linejoin="round"/>
<path d="M216 24H222" stroke="#D2CDC6" stroke-width="2" stroke-linecap="round" stroke-linejoin="round"/>
<path d="M226 12H232" stroke="#D2CDC6" stroke-width="2" stroke-linecap="round" stroke-linejoin="round"/>
<path d="M226 8H232" stroke="#D2CDC6" stroke-width="2" stroke-linecap="round" stroke-linejoin="round"/>
<path d="M226 16H232" stroke="#D2CDC6" stroke-width="2" stroke-linecap="round" stroke-linejoin="round"/>
<path d="M226 20H232" stroke="#D2CDC6" stroke-width="2" stroke-linecap="round" stroke-linejoin="round"/>
<path d="M226 24H232" stroke="#D2CDC6" stroke-width="2" stroke-linecap="round" stroke-linejoin="round"/>
</g>
<path d="M157.503 62.668H161.895V64H155.865V51.454H157.503V62.668ZM167.937 64.162C167.013 64.162 166.173 63.952 165.417 63.532C164.673 63.112 164.085 62.518 163.653 61.75C163.233 60.97 163.023 60.07 163.023 59.05C163.023 58.042 163.239 57.154 163.671 56.386C164.115 55.606 164.715 55.012 165.471 54.604C166.227 54.184 167.073 53.974 168.009 53.974C168.945 53.974 169.791 54.184 170.547 54.604C171.303 55.012 171.897 55.6 172.329 56.368C172.773 57.136 172.995 58.03 172.995 59.05C172.995 60.07 172.767 60.97 172.311 61.75C171.867 62.518 171.261 63.112 170.493 63.532C169.725 63.952 168.873 64.162 167.937 64.162ZM167.937 62.722C168.525 62.722 169.077 62.584 169.593 62.308C170.109 62.032 170.523 61.618 170.835 61.066C171.159 60.514 171.321 59.842 171.321 59.05C171.321 58.258 171.165 57.586 170.853 57.034C170.541 56.482 170.133 56.074 169.629 55.81C169.125 55.534 168.579 55.396 167.991 55.396C167.391 55.396 166.839 55.534 166.335 55.81C165.843 56.074 165.447 56.482 165.147 57.034C164.847 57.586 164.697 58.258 164.697 59.05C164.697 59.854 164.841 60.532 165.129 61.084C165.429 61.636 165.825 62.05 166.317 62.326C166.809 62.59 167.349 62.722 167.937 62.722ZM178.641 64.162C177.885 64.162 177.207 64.036 176.607 63.784C176.007 63.52 175.533 63.16 175.185 62.704C174.837 62.236 174.645 61.702 174.609 61.102H176.301C176.349 61.594 176.577 61.996 176.985 62.308C177.405 62.62 177.951 62.776 178.623 62.776C179.247 62.776 179.739 62.638 180.099 62.362C180.459 62.086 180.639 61.738 180.639 61.318C180.639 60.886 180.447 60.568 180.063 60.364C179.679 60.148 179.085 59.938 178.281 59.734C177.549 59.542 176.949 59.35 176.481 59.158C176.025 58.954 175.629 58.66 175.293 58.276C174.969 57.88 174.807 57.364 174.807 56.728C174.807 56.224 174.957 55.762 175.257 55.342C175.557 54.922 175.983 54.592 176.535 54.352C177.087 54.1 177.717 53.974 178.425 53.974C179.517 53.974 180.399 54.25 181.071 54.802C181.743 55.354 182.103 56.11 182.151 57.07H180.513C180.477 56.554 180.267 56.14 179.883 55.828C179.511 55.516 179.007 55.36 178.371 55.36C177.783 55.36 177.315 55.486 176.967 55.738C176.619 55.99 176.445 56.32 176.445 56.728C176.445 57.052 176.547 57.322 176.751 57.538C176.967 57.742 177.231 57.91 177.543 58.042C177.867 58.162 178.311 58.3 178.875 58.456C179.583 58.648 180.159 58.84 180.603 59.032C181.047 59.212 181.425 59.488 181.737 59.86C182.061 60.232 182.229 60.718 182.241 61.318C182.241 61.858 182.091 62.344 181.791 62.776C181.491 63.208 181.065 63.55 180.513 63.802C179.973 64.042 179.349 64.162 178.641 64.162ZM188.045 64.162C187.289 64.162 186.611 64.036 186.011 63.784C185.411 63.52 184.937 63.16 184.589 62.704C184.241 62.236 184.049 61.702 184.013 61.102H185.705C185.753 61.594 185.981 61.996 186.389 62.308C186.809 62.62 187.355 62.776 188.027 62.776C188.651 62.776 189.143 62.638 189.503 62.362C189.863 62.086 190.043 61.738 190.043 61.318C190.043 60.886 189.851 60.568 189.467 60.364C189.083 60.148 188.489 59.938 187.685 59.734C186.953 59.542 186.353 59.35 185.885 59.158C185.429 58.954 185.033 58.66 184.697 58.276C184.373 57.88 184.211 57.364 184.211 56.728C184.211 56.224 184.361 55.762 184.661 55.342C184.961 54.922 185.387 54.592 185.939 54.352C186.491 54.1 187.121 53.974 187.829 53.974C188.921 53.974 189.803 54.25 190.475 54.802C191.147 55.354 191.507 56.11 191.555 57.07H189.917C189.881 56.554 189.671 56.14 189.287 55.828C188.915 55.516 188.411 55.36 187.775 55.36C187.187 55.36 186.719 55.486 186.371 55.738C186.023 55.99 185.849 56.32 185.849 56.728C185.849 57.052 185.951 57.322 186.155 57.538C186.371 57.742 186.635 57.91 186.947 58.042C187.271 58.162 187.715 58.3 188.279 58.456C188.987 58.648 189.563 58.84 190.007 59.032C190.451 59.212 190.829 59.488 191.141 59.86C191.465 60.232 191.633 60.718 191.645 61.318C191.645 61.858 191.495 62.344 191.195 62.776C190.895 63.208 190.469 63.55 189.917 63.802C189.377 64.042 188.753 64.162 188.045 64.162ZM195.595 50.68V64H193.957V50.68H195.595ZM207.387 58.69C207.387 59.002 207.369 59.332 207.333 59.68H199.449C199.509 60.652 199.839 61.414 200.439 61.966C201.051 62.506 201.789 62.776 202.653 62.776C203.361 62.776 203.949 62.614 204.417 62.29C204.897 61.954 205.233 61.51 205.425 60.958H207.189C206.925 61.906 206.397 62.68 205.605 63.28C204.813 63.868 203.829 64.162 202.653 64.162C201.717 64.162 200.877 63.952 200.133 63.532C199.401 63.112 198.825 62.518 198.405 61.75C197.985 60.97 197.775 60.07 197.775 59.05C197.775 58.03 197.979 57.136 198.387 56.368C198.795 55.6 199.365 55.012 200.097 54.604C200.841 54.184 201.693 53.974 202.653 53.974C203.589 53.974 204.417 54.178 205.137 54.586C205.857 54.994 206.409 55.558 206.793 56.278C207.189 56.986 207.387 57.79 207.387 58.69ZM205.695 58.348C205.695 57.724 205.557 57.19 205.281 56.746C205.005 56.29 204.627 55.948 204.147 55.72C203.679 55.48 203.157 55.36 202.581 55.36C201.753 55.36 201.045 55.624 200.457 56.152C199.881 56.68 199.551 57.412 199.467 58.348H205.695ZM213.041 64.162C212.285 64.162 211.607 64.036 211.007 63.784C210.407 63.52 209.933 63.16 209.585 62.704C209.237 62.236 209.045 61.702 209.009 61.102H210.701C210.749 61.594 210.977 61.996 211.385 62.308C211.805 62.62 212.351 62.776 213.023 62.776C213.647 62.776 214.139 62.638 214.499 62.362C214.859 62.086 215.039 61.738 215.039 61.318C215.039 60.886 214.847 60.568 214.463 60.364C214.079 60.148 213.485 59.938 212.681 59.734C211.949 59.542 211.349 59.35 210.881 59.158C210.425 58.954 210.029 58.66 209.693 58.276C209.369 57.88 209.207 57.364 209.207 56.728C209.207 56.224 209.357 55.762 209.657 55.342C209.957 54.922 210.383 54.592 210.935 54.352C211.487 54.1 212.117 53.974 212.825 53.974C213.917 53.974 214.799 54.25 215.471 54.802C216.143 55.354 216.503 56.11 216.551 57.07H214.913C214.877 56.554 214.667 56.14 214.283 55.828C213.911 55.516 213.407 55.36 212.771 55.36C212.183 55.36 211.715 55.486 211.367 55.738C211.019 55.99 210.845 56.32 210.845 56.728C210.845 57.052 210.947 57.322 211.151 57.538C211.367 57.742 211.631 57.91 211.943 58.042C212.267 58.162 212.711 58.3 213.275 58.456C213.983 58.648 214.559 58.84 215.003 59.032C215.447 59.212 215.825 59.488 216.137 59.86C216.461 60.232 216.629 60.718 216.641 61.318C216.641 61.858 216.491 62.344 216.191 62.776C215.891 63.208 215.465 63.55 214.913 63.802C214.373 64.042 213.749 64.162 213.041 64.162ZM222.445 64.162C221.689 64.162 221.011 64.036 220.411 63.784C219.811 63.52 219.337 63.16 218.989 62.704C218.641 62.236 218.449 61.702 218.413 61.102H220.105C220.153 61.594 220.381 61.996 220.789 62.308C221.209 62.62 221.755 62.776 222.427 62.776C223.051 62.776 223.543 62.638 223.903 62.362C224.263 62.086 224.443 61.738 224.443 61.318C224.443 60.886 224.251 60.568 223.867 60.364C223.483 60.148 222.889 59.938 222.085 59.734C221.353 59.542 220.753 59.35 220.285 59.158C219.829 58.954 219.433 58.66 219.097 58.276C218.773 57.88 218.611 57.364 218.611 56.728C218.611 56.224 218.761 55.762 219.061 55.342C219.361 54.922 219.787 54.592 220.339 54.352C220.891 54.1 221.521 53.974 222.229 53.974C223.321 53.974 224.203 54.25 224.875 54.802C225.547 55.354 225.907 56.11 225.955 57.07H224.317C224.281 56.554 224.071 56.14 223.687 55.828C223.315 55.516 222.811 55.36 222.175 55.36C221.587 55.36 221.119 55.486 220.771 55.738C220.423 55.99 220.249 56.32 220.249 56.728C220.249 57.052 220.351 57.322 220.555 57.538C220.771 57.742 221.035 57.91 221.347 58.042C221.671 58.162 222.115 58.3 222.679 58.456C223.387 58.648 223.963 58.84 224.407 59.032C224.851 59.212 225.229 59.488 225.541 59.86C225.865 60.232 226.033 60.718 226.045 61.318C226.045 61.858 225.895 62.344 225.595 62.776C225.295 63.208 224.869 63.55 224.317 63.802C223.777 64.042 223.153 64.162 222.445 64.162ZM240.573 61.21H235.101L234.093 64H232.365L236.901 51.526H238.791L243.309 64H241.581L240.573 61.21ZM240.105 59.878L237.837 53.542L235.569 59.878H240.105ZM254.033 54.136V64H252.395V62.542C252.083 63.046 251.645 63.442 251.081 63.73C250.529 64.006 249.917 64.144 249.245 64.144C248.477 64.144 247.787 63.988 247.175 63.676C246.563 63.352 246.077 62.872 245.717 62.236C245.369 61.6 245.195 60.826 245.195 59.914V54.136H246.815V59.698C246.815 60.67 247.061 61.42 247.553 61.948C248.045 62.464 248.717 62.722 249.569 62.722C250.445 62.722 251.135 62.452 251.639 61.912C252.143 61.372 252.395 60.586 252.395 59.554V54.136H254.033ZM256.187 59.032C256.187 58.024 256.391 57.142 256.799 56.386C257.207 55.618 257.765 55.024 258.473 54.604C259.193 54.184 259.997 53.974 260.885 53.974C261.653 53.974 262.367 54.154 263.027 54.514C263.687 54.862 264.191 55.324 264.539 55.9V50.68H266.195V64H264.539V62.146C264.215 62.734 263.735 63.22 263.099 63.604C262.463 63.976 261.719 64.162 260.867 64.162C259.991 64.162 259.193 63.946 258.473 63.514C257.765 63.082 257.207 62.476 256.799 61.696C256.391 60.916 256.187 60.028 256.187 59.032ZM264.539 59.05C264.539 58.306 264.389 57.658 264.089 57.106C263.789 56.554 263.381 56.134 262.865 55.846C262.361 55.546 261.803 55.396 261.191 55.396C260.579 55.396 260.021 55.54 259.517 55.828C259.013 56.116 258.611 56.536 258.311 57.088C258.011 57.64 257.861 58.288 257.861 59.032C257.861 59.788 258.011 60.448 258.311 61.012C258.611 61.564 259.013 61.99 259.517 62.29C260.021 62.578 260.579 62.722 261.191 62.722C261.803 62.722 262.361 62.578 262.865 62.29C263.381 61.99 263.789 61.564 264.089 61.012C264.389 60.448 264.539 59.794 264.539 59.05ZM269.809 52.534C269.497 52.534 269.233 52.426 269.017 52.21C268.801 51.994 268.693 51.73 268.693 51.418C268.693 51.106 268.801 50.842 269.017 50.626C269.233 50.41 269.497 50.302 269.809 50.302C270.109 50.302 270.361 50.41 270.565 50.626C270.781 50.842 270.889 51.106 270.889 51.418C270.889 51.73 270.781 51.994 270.565 52.21C270.361 52.426 270.109 52.534 269.809 52.534ZM270.601 54.136V64H268.963V54.136H270.601ZM277.695 64.162C276.771 64.162 275.931 63.952 275.175 63.532C274.431 63.112 273.843 62.518 273.411 61.75C272.991 60.97 272.781 60.07 272.781 59.05C272.781 58.042 272.997 57.154 273.429 56.386C273.873 55.606 274.473 55.012 275.229 54.604C275.985 54.184 276.831 53.974 277.767 53.974C278.703 53.974 279.549 54.184 280.305 54.604C281.061 55.012 281.655 55.6 282.087 56.368C282.531 57.136 282.753 58.03 282.753 59.05C282.753 60.07 282.525 60.97 282.069 61.75C281.625 62.518 281.019 63.112 280.251 63.532C279.483 63.952 278.631 64.162 277.695 64.162ZM277.695 62.722C278.283 62.722 278.835 62.584 279.351 62.308C279.867 62.032 280.281 61.618 280.593 61.066C280.917 60.514 281.079 59.842 281.079 59.05C281.079 58.258 280.923 57.586 280.611 57.034C280.299 56.482 279.891 56.074 279.387 55.81C278.883 55.534 278.337 55.396 277.749 55.396C277.149 55.396 276.597 55.534 276.093 55.81C275.601 56.074 275.205 56.482 274.905 57.034C274.605 57.586 274.455 58.258 274.455 59.05C274.455 59.854 274.599 60.532 274.887 61.084C275.187 61.636 275.583 62.05 276.075 62.326C276.567 62.59 277.107 62.722 277.695 62.722Z" fill="#666666"/>
<defs>
<clipPath id="clip0_358_290">
<rect width="32" height="32" fill="white" transform="translate(203)"/>
</clipPath>
</defs>
</svg>
